<svg xmlns="http://www.w3.org/2000/svg" viewBox="0 0 64 64">
  <defs>
    <linearGradient id="bg" x1="0%" y1="0%" x2="100%" y2="100%">
      <stop offset="0%" stop-color="#ffb14d"/>
      <stop offset="55%" stop-color="#d96a26"/>
      <stop offset="100%" stop-color="#8f3314"/>
    </linearGradient>
    <linearGradient id="spark" x1="0%" y1="0%" x2="100%" y2="100%">
      <stop offset="0%" stop-color="#fff5d8"/>
      <stop offset="100%" stop-color="#fff0b0"/>
    </linearGradient>
  </defs>
  <rect x="4" y="4" width="56" height="56" rx="18" fill="url(#bg)"/>
  <circle cx="49" cy="16" r="6" fill="url(#spark)" opacity="0.95"/>
  <path d="M45 10l1.8 3.7L50.5 15l-3.7 1.4L45 20l-1.8-3.6L39.5 15l3.7-1.3z" fill="#fff9e7"/>
  <path d="M17 22h10v22h-6V28h-4z" fill="#fff8f0"/>
  <path d="M31 24.5c2.1-1.8 4.7-2.5 7.7-2.5 6.7 0 11.3 4.2 11.3 10.5 0 4.1-1.9 7-5.7 9.8L40.2 45h10.4v5H31.8v-4.3l8.6-6.3c2.6-1.9 3.8-3.5 3.8-5.8 0-2.7-2-4.5-5.1-4.5-2.4 0-4.5.9-6.4 2.8z" fill="#fff8f0"/>
  <rect x="4" y="4" width="56" height="56" rx="18" fill="none" stroke="#fff3de" stroke-opacity="0.45" stroke-width="1.5"/>
</svg>
